<mxfile host="65bd71144e">
    <diagram id="WSOeOYCF-2omHUzloN1z" name="mirror-pod">
        <mxGraphModel dx="311" dy="396" grid="0" gridSize="10" guides="1" tooltips="1" connect="1" arrows="1" fold="1" page="1" pageScale="1" pageWidth="827" pageHeight="1169" math="0" shadow="0">
            <root>
                <mxCell id="0"/>
                <mxCell id="1" parent="0"/>
                <mxCell id="Zf1WVp7zFFNgFjVbVAom-23" value="" style="rounded=0;whiteSpace=wrap;html=1;fillColor=none;dashed=1;" parent="1" vertex="1">
                    <mxGeometry x="424.75" y="175" width="162.5" height="160" as="geometry"/>
                </mxCell>
                <mxCell id="Zf1WVp7zFFNgFjVbVAom-1" value="" style="rounded=0;whiteSpace=wrap;html=1;fillColor=none;dashed=1;" parent="1" vertex="1">
                    <mxGeometry x="92.5" y="140" width="295" height="320" as="geometry"/>
                </mxCell>
                <mxCell id="Zf1WVp7zFFNgFjVbVAom-2" value="Pod Manager" style="text;html=1;align=center;verticalAlign=middle;resizable=0;points=[];autosize=1;strokeColor=none;fontStyle=1" parent="1" vertex="1">
                    <mxGeometry x="90" y="120" width="90" height="20" as="geometry"/>
                </mxCell>
                <mxCell id="Zf1WVp7zFFNgFjVbVAom-31" value="&lt;font color=&quot;#ff0000&quot;&gt;2.Create&lt;/font&gt;" style="edgeStyle=orthogonalEdgeStyle;rounded=0;orthogonalLoop=1;jettySize=auto;html=1;exitX=1;exitY=0.5;exitDx=0;exitDy=0;entryX=0;entryY=0.5;entryDx=0;entryDy=0;dashed=1;endArrow=open;endFill=0;fillColor=#f8cecc;strokeColor=#FF0000;" parent="1" source="Zf1WVp7zFFNgFjVbVAom-3" target="Zf1WVp7zFFNgFjVbVAom-5" edge="1">
                    <mxGeometry y="13" relative="1" as="geometry">
                        <mxPoint as="offset"/>
                    </mxGeometry>
                </mxCell>
                <mxCell id="Zf1WVp7zFFNgFjVbVAom-3" value="MirrorClient" style="rounded=0;whiteSpace=wrap;html=1;" parent="1" vertex="1">
                    <mxGeometry x="150" y="375" width="120" height="48" as="geometry"/>
                </mxCell>
                <mxCell id="Zf1WVp7zFFNgFjVbVAom-32" style="edgeStyle=orthogonalEdgeStyle;rounded=0;orthogonalLoop=1;jettySize=auto;html=1;exitX=0.5;exitY=0;exitDx=0;exitDy=0;entryX=0.5;entryY=1;entryDx=0;entryDy=0;dashed=1;endArrow=open;endFill=0;fillColor=#f8cecc;strokeColor=#FF0000;" parent="1" source="Zf1WVp7zFFNgFjVbVAom-5" target="Zf1WVp7zFFNgFjVbVAom-24" edge="1">
                    <mxGeometry relative="1" as="geometry"/>
                </mxCell>
                <mxCell id="Zf1WVp7zFFNgFjVbVAom-5" value="API Server" style="rounded=0;whiteSpace=wrap;html=1;" parent="1" vertex="1">
                    <mxGeometry x="446" y="375" width="120" height="48" as="geometry"/>
                </mxCell>
                <mxCell id="Zf1WVp7zFFNgFjVbVAom-18" value="ResolvedPod" style="edgeStyle=orthogonalEdgeStyle;rounded=0;orthogonalLoop=1;jettySize=auto;html=1;exitX=0.5;exitY=0;exitDx=0;exitDy=0;entryX=0.5;entryY=0;entryDx=0;entryDy=0;endArrow=open;endFill=0;" parent="1" source="Zf1WVp7zFFNgFjVbVAom-8" target="Zf1WVp7zFFNgFjVbVAom-10" edge="1">
                    <mxGeometry relative="1" as="geometry"/>
                </mxCell>
                <mxCell id="Zf1WVp7zFFNgFjVbVAom-8" value="UID" style="rounded=1;whiteSpace=wrap;html=1;fillColor=#f8cecc;strokeColor=#b85450;" parent="1" vertex="1">
                    <mxGeometry x="150" y="185" width="40" height="48" as="geometry"/>
                </mxCell>
                <mxCell id="Zf1WVp7zFFNgFjVbVAom-19" value="MirrorPod" style="edgeStyle=orthogonalEdgeStyle;rounded=0;orthogonalLoop=1;jettySize=auto;html=1;exitX=0.5;exitY=0;exitDx=0;exitDy=0;entryX=0.5;entryY=0;entryDx=0;entryDy=0;endArrow=open;endFill=0;" parent="1" source="Zf1WVp7zFFNgFjVbVAom-9" target="Zf1WVp7zFFNgFjVbVAom-15" edge="1">
                    <mxGeometry relative="1" as="geometry"/>
                </mxCell>
                <mxCell id="Zf1WVp7zFFNgFjVbVAom-9" value="UID" style="rounded=1;whiteSpace=wrap;html=1;fillColor=#f8cecc;strokeColor=#b85450;" parent="1" vertex="1">
                    <mxGeometry x="150" y="276" width="40" height="48" as="geometry"/>
                </mxCell>
                <mxCell id="Zf1WVp7zFFNgFjVbVAom-10" value="P" style="rounded=1;whiteSpace=wrap;html=1;fillColor=#fff2cc;strokeColor=#d6b656;" parent="1" vertex="1">
                    <mxGeometry x="245" y="185" width="40" height="48" as="geometry"/>
                </mxCell>
                <mxCell id="Zf1WVp7zFFNgFjVbVAom-11" value="UID" style="rounded=1;whiteSpace=wrap;html=1;fillColor=#f8cecc;strokeColor=#b85450;" parent="1" vertex="1">
                    <mxGeometry x="100" y="30" width="40" height="48" as="geometry"/>
                </mxCell>
                <mxCell id="Zf1WVp7zFFNgFjVbVAom-12" value="string" style="text;html=1;align=center;verticalAlign=middle;resizable=0;points=[];autosize=1;strokeColor=none;" parent="1" vertex="1">
                    <mxGeometry x="140" y="44" width="40" height="20" as="geometry"/>
                </mxCell>
                <mxCell id="Zf1WVp7zFFNgFjVbVAom-13" value="P" style="rounded=1;whiteSpace=wrap;html=1;fillColor=#fff2cc;strokeColor=#d6b656;" parent="1" vertex="1">
                    <mxGeometry x="230" y="30" width="40" height="48" as="geometry"/>
                </mxCell>
                <mxCell id="Zf1WVp7zFFNgFjVbVAom-14" value="Pod" style="text;html=1;align=center;verticalAlign=middle;resizable=0;points=[];autosize=1;strokeColor=none;" parent="1" vertex="1">
                    <mxGeometry x="270" y="44" width="40" height="20" as="geometry"/>
                </mxCell>
                <mxCell id="Zf1WVp7zFFNgFjVbVAom-15" value="P" style="rounded=1;whiteSpace=wrap;html=1;fillColor=#fff2cc;strokeColor=#d6b656;" parent="1" vertex="1">
                    <mxGeometry x="245" y="276" width="40" height="48" as="geometry"/>
                </mxCell>
                <mxCell id="Zf1WVp7zFFNgFjVbVAom-26" style="edgeStyle=orthogonalEdgeStyle;rounded=0;orthogonalLoop=1;jettySize=auto;html=1;exitX=1;exitY=0.5;exitDx=0;exitDy=0;entryX=0;entryY=0.5;entryDx=0;entryDy=0;endArrow=open;endFill=0;dashed=1;" parent="1" source="Zf1WVp7zFFNgFjVbVAom-16" target="Zf1WVp7zFFNgFjVbVAom-20" edge="1">
                    <mxGeometry relative="1" as="geometry"/>
                </mxCell>
                <mxCell id="Zf1WVp7zFFNgFjVbVAom-16" value="P" style="rounded=1;whiteSpace=wrap;html=1;fillColor=#fff2cc;strokeColor=#d6b656;" parent="1" vertex="1">
                    <mxGeometry x="285" y="185" width="40" height="48" as="geometry"/>
                </mxCell>
                <mxCell id="Zf1WVp7zFFNgFjVbVAom-33" style="edgeStyle=orthogonalEdgeStyle;rounded=0;orthogonalLoop=1;jettySize=auto;html=1;exitX=1;exitY=0.5;exitDx=0;exitDy=0;entryX=0;entryY=0.5;entryDx=0;entryDy=0;dashed=1;endArrow=open;endFill=0;" parent="1" source="Zf1WVp7zFFNgFjVbVAom-17" target="Zf1WVp7zFFNgFjVbVAom-24" edge="1">
                    <mxGeometry relative="1" as="geometry"/>
                </mxCell>
                <mxCell id="Zf1WVp7zFFNgFjVbVAom-17" value="P" style="rounded=1;whiteSpace=wrap;html=1;fillColor=#fff2cc;strokeColor=#d6b656;" parent="1" vertex="1">
                    <mxGeometry x="285" y="276" width="40" height="48" as="geometry"/>
                </mxCell>
                <mxCell id="Zf1WVp7zFFNgFjVbVAom-34" value="&lt;font color=&quot;#ff0000&quot;&gt;1.CreateMirrorPod&lt;/font&gt;" style="edgeStyle=orthogonalEdgeStyle;rounded=0;orthogonalLoop=1;jettySize=auto;html=1;exitX=0;exitY=0.75;exitDx=0;exitDy=0;dashed=1;endArrow=open;endFill=0;fillColor=#f8cecc;strokeColor=#FF0000;" parent="1" source="Zf1WVp7zFFNgFjVbVAom-20" target="Zf1WVp7zFFNgFjVbVAom-3" edge="1">
                    <mxGeometry x="0.3023" y="10" relative="1" as="geometry">
                        <Array as="points">
                            <mxPoint x="410" y="221"/>
                            <mxPoint x="410" y="345"/>
                            <mxPoint x="210" y="345"/>
                        </Array>
                        <mxPoint as="offset"/>
                    </mxGeometry>
                </mxCell>
                <mxCell id="Zf1WVp7zFFNgFjVbVAom-20" value="S" style="rounded=1;whiteSpace=wrap;html=1;fillColor=#fff2cc;strokeColor=#d6b656;" parent="1" vertex="1">
                    <mxGeometry x="486" y="185" width="40" height="48" as="geometry"/>
                </mxCell>
                <mxCell id="Zf1WVp7zFFNgFjVbVAom-24" value="M" style="rounded=1;whiteSpace=wrap;html=1;fillColor=#fff2cc;strokeColor=#d6b656;" parent="1" vertex="1">
                    <mxGeometry x="486" y="276" width="40" height="48" as="geometry"/>
                </mxCell>
                <mxCell id="Zf1WVp7zFFNgFjVbVAom-27" value="Static" style="text;html=1;align=center;verticalAlign=middle;resizable=0;points=[];autosize=1;strokeColor=none;" parent="1" vertex="1">
                    <mxGeometry x="526" y="199" width="50" height="20" as="geometry"/>
                </mxCell>
                <mxCell id="Zf1WVp7zFFNgFjVbVAom-28" value="Mirror" style="text;html=1;align=center;verticalAlign=middle;resizable=0;points=[];autosize=1;strokeColor=none;" parent="1" vertex="1">
                    <mxGeometry x="526" y="290" width="50" height="20" as="geometry"/>
                </mxCell>
                <mxCell id="Zf1WVp7zFFNgFjVbVAom-36" value="" style="rounded=0;whiteSpace=wrap;html=1;fillColor=#ffffff;" parent="1" vertex="1">
                    <mxGeometry x="303" y="415" width="30" height="40" as="geometry"/>
                </mxCell>
                <mxCell id="Zf1WVp7zFFNgFjVbVAom-37" value="" style="rounded=0;whiteSpace=wrap;html=1;fillColor=#ffffff;" parent="1" vertex="1">
                    <mxGeometry x="399" y="415" width="30" height="40" as="geometry"/>
                </mxCell>
                <UserObject label="s.Namespace" id="Zf1WVp7zFFNgFjVbVAom-40">
                    <mxCell style="text;whiteSpace=wrap;html=1;" parent="1" vertex="1">
                        <mxGeometry x="275" y="455" width="100" height="30" as="geometry"/>
                    </mxCell>
                </UserObject>
                <mxCell id="Zf1WVp7zFFNgFjVbVAom-41" value="s.OwnerReferences" style="text;html=1;align=center;verticalAlign=middle;resizable=0;points=[];autosize=1;strokeColor=none;" parent="1" vertex="1">
                    <mxGeometry x="354" y="458" width="120" height="20" as="geometry"/>
                </mxCell>
            </root>
        </mxGraphModel>
    </diagram>
    <diagram id="oGe5v-r-uu4aU1kxV94e" name="第 2 页">
        <mxGraphModel dx="311" dy="396" grid="1" gridSize="10" guides="1" tooltips="1" connect="1" arrows="1" fold="1" page="1" pageScale="1" pageWidth="827" pageHeight="1169" math="0" shadow="0">
            <root>
                <mxCell id="yGH6L3rB3P4ruZ3hDASj-0"/>
                <mxCell id="yGH6L3rB3P4ruZ3hDASj-1" parent="yGH6L3rB3P4ruZ3hDASj-0"/>
                <mxCell id="yGH6L3rB3P4ruZ3hDASj-2" value="" style="rounded=0;whiteSpace=wrap;html=1;" vertex="1" parent="yGH6L3rB3P4ruZ3hDASj-1">
                    <mxGeometry x="95" y="320" width="120" height="36" as="geometry"/>
                </mxCell>
                <mxCell id="vdhSQu7A_jpIPIApN3c9-0" value="" style="rounded=0;whiteSpace=wrap;html=1;fillColor=#fff2cc;strokeColor=#d6b656;" vertex="1" parent="yGH6L3rB3P4ruZ3hDASj-1">
                    <mxGeometry x="130" y="110" width="30" height="36" as="geometry"/>
                </mxCell>
                <mxCell id="vdhSQu7A_jpIPIApN3c9-1" value="*v1.Pod" style="text;html=1;align=center;verticalAlign=middle;resizable=0;points=[];autosize=1;strokeColor=none;" vertex="1" parent="yGH6L3rB3P4ruZ3hDASj-1">
                    <mxGeometry x="155" y="118" width="60" height="20" as="geometry"/>
                </mxCell>
                <mxCell id="vdhSQu7A_jpIPIApN3c9-2" value="" style="rounded=0;whiteSpace=wrap;html=1;fillColor=#fff2cc;strokeColor=#d6b656;" vertex="1" parent="yGH6L3rB3P4ruZ3hDASj-1">
                    <mxGeometry x="95" y="190" width="30" height="36" as="geometry"/>
                </mxCell>
                <mxCell id="vdhSQu7A_jpIPIApN3c9-3" value="" style="rounded=0;whiteSpace=wrap;html=1;fillColor=#fff2cc;strokeColor=#d6b656;" vertex="1" parent="yGH6L3rB3P4ruZ3hDASj-1">
                    <mxGeometry x="155" y="190" width="30" height="36" as="geometry"/>
                </mxCell>
                <mxCell id="vdhSQu7A_jpIPIApN3c9-4" value="" style="rounded=0;whiteSpace=wrap;html=1;fillColor=#fff2cc;strokeColor=#d6b656;" vertex="1" parent="yGH6L3rB3P4ruZ3hDASj-1">
                    <mxGeometry x="125" y="190" width="30" height="36" as="geometry"/>
                </mxCell>
                <mxCell id="vdhSQu7A_jpIPIApN3c9-5" value="iterate" style="endArrow=open;html=1;fontStyle=1;endFill=0;" edge="1" parent="yGH6L3rB3P4ruZ3hDASj-1">
                    <mxGeometry y="-10" width="50" height="50" relative="1" as="geometry">
                        <mxPoint x="105" y="240" as="sourcePoint"/>
                        <mxPoint x="175" y="240" as="targetPoint"/>
                        <mxPoint as="offset"/>
                    </mxGeometry>
                </mxCell>
            </root>
        </mxGraphModel>
    </diagram>
</mxfile>